<svg width="79" height="20" viewBox="0 0 79 20" fill="none" xmlns="http://www.w3.org/2000/svg">
    <path fill-rule="evenodd" clip-rule="evenodd" d="M11.2255 7.68697C11.2255 9.46957 9.78246 10.9125 8 10.9125C6.21755 10.9125 4.7745 9.46957 4.7745 7.68697C4.7745 5.90436 6.21755 4.46146 8 4.46146C9.78261 4.46146 11.2255 5.90451 11.2255 7.68697ZM9.95226 7.687C9.95226 6.60481 9.08219 5.73475 8 5.73475C6.91781 5.73475 6.04775 6.626 6.04775 7.687C6.04775 8.76919 6.91781 9.63926 8 9.63926C9.08219 9.63926 9.95226 8.76919 9.95226 7.687Z" fill="#EC4466"/>
    <path fill-rule="evenodd" clip-rule="evenodd" d="M16 10C16 14.4138 12.4138 18 8 18C3.58624 18 0 14.4138 0 10C0 5.58624 3.58624 2 8 2C12.4138 2 16 5.58624 16 10ZM8 12.8222C6.36601 12.8222 4.79583 13.6074 3.58621 15.0504C4.75332 16.0901 6.30239 16.7267 8 16.7267C9.69761 16.7267 11.2466 16.0901 12.4138 15.0504C11.2042 13.6074 9.63399 12.8222 8 12.8222ZM14.7268 10C14.7268 6.28647 11.7135 3.27321 8 3.27321C4.28647 3.27321 1.27321 6.28647 1.27321 10C1.27321 11.549 1.80371 12.9709 2.69496 14.1167C4.15915 12.4614 6.00527 11.549 8 11.549C9.99473 11.549 11.8408 12.4615 13.305 14.1167C14.1963 12.9921 14.7268 11.549 14.7268 10Z" fill="#EC4466"/>
    <path d="M25.04 4.316H26.672V14.14H32.336V15.5H25.04V4.316ZM37.1818 15.74C36.3178 15.74 35.5551 15.58 34.8938 15.26C34.2431 14.9293 33.7311 14.46 33.3578 13.852C32.9951 13.2333 32.8138 12.508 32.8138 11.676C32.8138 10.8547 32.9951 10.1347 33.3578 9.516C33.7204 8.89733 34.2324 8.42267 34.8938 8.092C35.5551 7.75067 36.3178 7.58 37.1818 7.58C38.0458 7.58 38.8084 7.75067 39.4698 8.092C40.1311 8.42267 40.6431 8.89733 41.0058 9.516C41.3791 10.1347 41.5658 10.8547 41.5658 11.676C41.5658 12.508 41.3791 13.2333 41.0058 13.852C40.6431 14.46 40.1311 14.9293 39.4698 15.26C38.8084 15.58 38.0458 15.74 37.1818 15.74ZM37.1818 14.46C38.0138 14.46 38.6751 14.204 39.1658 13.692C39.6564 13.18 39.9018 12.508 39.9018 11.676C39.9018 10.812 39.6564 10.1293 39.1658 9.628C38.6751 9.12667 38.0138 8.876 37.1818 8.876C36.3498 8.876 35.6884 9.12667 35.1978 9.628C34.7071 10.1293 34.4618 10.812 34.4618 11.676C34.4618 12.508 34.7071 13.18 35.1978 13.692C35.6884 14.204 36.3498 14.46 37.1818 14.46ZM47.3373 19.18C46.8146 19.18 46.3026 19.1373 45.8013 19.052C45.3106 18.9667 44.8946 18.844 44.5533 18.684V17.356C45.3533 17.7187 46.2813 17.9 47.3373 17.9C48.3293 17.9 49.0493 17.6813 49.4973 17.244C49.9559 16.8173 50.1853 16.1667 50.1853 15.292V14.476C49.4813 15.3187 48.4466 15.74 47.0813 15.74C46.3026 15.74 45.6039 15.5693 44.9853 15.228C44.3666 14.8867 43.8813 14.4067 43.5293 13.788C43.1773 13.1693 43.0013 12.46 43.0013 11.66C43.0013 10.8493 43.1719 10.14 43.5133 9.532C43.8653 8.91333 44.3453 8.43333 44.9533 8.092C45.5719 7.75067 46.2653 7.58 47.0333 7.58C47.7479 7.58 48.3506 7.68667 48.8413 7.9C49.3426 8.10267 49.8066 8.444 50.2333 8.924V7.82H51.8013V15.116C51.8013 16.428 51.4333 17.4307 50.6973 18.124C49.9719 18.828 48.8519 19.18 47.3373 19.18ZM47.4013 14.46C48.0626 14.46 48.6439 14.284 49.1453 13.932C49.6573 13.58 50.0039 13.1107 50.1853 12.524V10.796C49.9826 10.1987 49.6306 9.72933 49.1293 9.388C48.6386 9.04667 48.0626 8.876 47.4013 8.876C46.8786 8.876 46.4039 8.99333 45.9773 9.228C45.5613 9.452 45.2306 9.77733 44.9853 10.204C44.7506 10.6307 44.6332 11.116 44.6332 11.66C44.6332 12.2147 44.7506 12.7053 44.9853 13.132C45.2306 13.548 45.5613 13.8733 45.9773 14.108C46.4039 14.3427 46.8786 14.46 47.4013 14.46ZM57.5255 15.74C56.6615 15.74 55.8988 15.58 55.2375 15.26C54.5868 14.9293 54.0748 14.46 53.7015 13.852C53.3388 13.2333 53.1575 12.508 53.1575 11.676C53.1575 10.8547 53.3388 10.1347 53.7015 9.516C54.0642 8.89733 54.5762 8.42267 55.2375 8.092C55.8988 7.75067 56.6615 7.58 57.5255 7.58C58.3895 7.58 59.1522 7.75067 59.8135 8.092C60.4748 8.42267 60.9868 8.89733 61.3495 9.516C61.7228 10.1347 61.9095 10.8547 61.9095 11.676C61.9095 12.508 61.7228 13.2333 61.3495 13.852C60.9868 14.46 60.4748 14.9293 59.8135 15.26C59.1522 15.58 58.3895 15.74 57.5255 15.74ZM57.5255 14.46C58.3575 14.46 59.0188 14.204 59.5095 13.692C60.0002 13.18 60.2455 12.508 60.2455 11.676C60.2455 10.812 60.0002 10.1293 59.5095 9.628C59.0188 9.12667 58.3575 8.876 57.5255 8.876C56.6935 8.876 56.0322 9.12667 55.5415 9.628C55.0508 10.1293 54.8055 10.812 54.8055 11.676C54.8055 12.508 55.0508 13.18 55.5415 13.692C56.0322 14.204 56.6935 14.46 57.5255 14.46ZM66.721 15.74C65.6863 15.74 64.9023 15.4627 64.369 14.908C63.8463 14.3533 63.585 13.612 63.585 12.684V7.82H65.201V12.62C65.201 13.8467 65.8143 14.46 67.041 14.46C68.1183 14.46 68.961 13.9747 69.569 13.004V7.82H71.185V15.5H69.617V14.412C69.2543 14.8707 68.8223 15.2067 68.321 15.42C67.8303 15.6333 67.297 15.74 66.721 15.74ZM76.2188 15.74C75.4401 15.74 74.8374 15.516 74.4108 15.068C73.9948 14.62 73.7868 13.9853 73.7868 13.164V9.068H72.6188V7.82H73.7868V5.516H75.4188V7.82H77.3068V9.068H75.4188V13.052C75.4188 13.564 75.5148 13.9267 75.7068 14.14C75.9094 14.3533 76.2721 14.46 76.7948 14.46C77.1041 14.46 77.4134 14.3907 77.7228 14.252V15.532C77.3174 15.6707 76.8161 15.74 76.2188 15.74Z" fill="#EC4466"/>
</svg>

